HIERARCHY
ROOT hips
{
  OFFSET 0 10.680822821525009 1.3929502295107734
  CHANNELS 6 Xposition Yposition Zposition Yrotation Xrotation Zrotation
  JOINT spine
  {
    OFFSET -7.042017322922631e-31 0.6058489940359625 0
    CHANNELS 3 Yrotation Xrotation Zrotation
    JOINT chest
    {
      OFFSET 0 1.2699794144455032 0
      CHANNELS 3 Yrotation Xrotation Zrotation
      JOINT upperChest
      {
        OFFSET 0 1.217799211677689 0
        CHANNELS 3 Yrotation Xrotation Zrotation
        JOINT neck
        {
          OFFSET 0 1.5248826104153006 0
          CHANNELS 3 Yrotation Xrotation Zrotation
          JOINT head
          {
            OFFSET 0 0.8197772727844447 0
            CHANNELS 3 Yrotation Xrotation Zrotation
            JOINT leftEye
            {
              OFFSET 0.2793952361220866 0.6769952096623495 0.1830357412467788
              CHANNELS 3 Yrotation Xrotation Zrotation
              End Site
              {
                OFFSET 0.2793952361220866 0.6769952096623495 0.1830357412467788
              }
            }
            JOINT rightEye
            {
              OFFSET -0.27939522230689573 0.676995205357064 0.18303631459760622
              CHANNELS 3 Yrotation Xrotation Zrotation
              End Site
              {
                OFFSET -0.27939522230689573 0.676995205357064 0.18303631459760622
              }
            }
          }
        }
        JOINT leftShoulder
        {
          OFFSET 0.41486978509200423 1.1670505408695453 0
          CHANNELS 3 Yrotation Xrotation Zrotation
          JOINT leftUpperArm
          {
            OFFSET 0.9737926108153417 0 0
            CHANNELS 3 Yrotation Xrotation Zrotation
            JOINT leftLowerArm
            {
              OFFSET 2.5269332222665284 0 0
              CHANNELS 3 Yrotation Xrotation Zrotation
              JOINT leftHand
              {
                OFFSET 2.4263782738425914 0 0
                CHANNELS 3 Yrotation Xrotation Zrotation
                JOINT leftIndexProximal
                {
                  OFFSET 0.724320348022514 0.08170607082582437 0.20360061616140124
                  CHANNELS 3 Yrotation Xrotation Zrotation
                  JOINT leftIndexIntermediate
                  {
                    OFFSET 0.36548960630744587 -0.010566596513783999 -0.01414783573280308
                    CHANNELS 3 Yrotation Xrotation Zrotation
                    JOINT leftIndexDistal
                    {
                      OFFSET 0.22502819650693362 -0.007863819831430696 -0.007567681939621526
                      CHANNELS 3 Yrotation Xrotation Zrotation
                      End Site
                      {
                        OFFSET 0.22502819650693362 -0.007863819831430696 -0.007567681939621526
                      }
                    }
                  }
                }
                JOINT leftLittleProximal
                {
                  OFFSET 0.6720322998298205 0.08170601055037707 -0.3230036039466837
                  CHANNELS 3 Yrotation Xrotation Zrotation
                  JOINT leftLittleIntermediate
                  {
                    OFFSET 0.34583592281688713 5.476543019078406e-8 1.3869203337180114e-7
                    CHANNELS 3 Yrotation Xrotation Zrotation
                    JOINT leftLittleDistal
                    {
                      OFFSET 0.19925728062053938 0.003098047439490381 0.0038303983709246925
                      CHANNELS 3 Yrotation Xrotation Zrotation
                      End Site
                      {
                        OFFSET 0.19925728062053938 0.003098047439490381 0.0038303983709246925
                      }
                    }
                  }
                }
                JOINT leftMiddleProximal
                {
                  OFFSET 0.7300436596551069 0.0817073395107144 0.022661722987926763
                  CHANNELS 3 Yrotation Xrotation Zrotation
                  JOINT leftMiddleIntermediate
                  {
                    OFFSET 0.40758254347686607 -0.0000012383587111308714 2.408460318820138e-7
                    CHANNELS 3 Yrotation Xrotation Zrotation
                    JOINT leftMiddleDistal
                    {
                      OFFSET 0.2514490105498507 0.0000013869132886590307 9.738618134136345e-8
                      CHANNELS 3 Yrotation Xrotation Zrotation
                      End Site
                      {
                        OFFSET 0.2514490105498507 0.0000013869132886590307 9.738618134136345e-8
                      }
                    }
                  }
                }
                JOINT leftRingProximal
                {
                  OFFSET 0.7217261161191838 0.08170601902187746 -0.15043395722184966
                  CHANNELS 3 Yrotation Xrotation Zrotation
                  JOINT leftRingIntermediate
                  {
                    OFFSET 0.37808807487521556 0.0000013754022405443322 2.2046919317952884e-7
                    CHANNELS 3 Yrotation Xrotation Zrotation
                    JOINT leftRingDistal
                    {
                      OFFSET 0.21812105442344254 -0.002713483731960231 -0.004991354517454624
                      CHANNELS 3 Yrotation Xrotation Zrotation
                      End Site
                      {
                        OFFSET 0.21812105442344254 -0.002713483731960231 -0.004991354517454624
                      }
                    }
                  }
                }
                JOINT leftThumbProximal
                {
                  OFFSET 0.10793587079521427 -0.1652791240518252 -0.07775251827190094
                  CHANNELS 3 Yrotation Xrotation Zrotation
                  JOINT leftThumbIntermediate
                  {
                    OFFSET 0.40355819082296684 -0.017484006740276614 0.3177776014416309
                    CHANNELS 3 Yrotation Xrotation Zrotation
                    JOINT leftThumbDistal
                    {
                      OFFSET 0.2318764658022603 -0.018510186824293617 0.21396001800186287
                      CHANNELS 3 Yrotation Xrotation Zrotation
                      End Site
                      {
                        OFFSET 0.2318764658022603 -0.018510186824293617 0.21396001800186287
                      }
                    }
                  }
                }
              }
            }
          }
        }
        JOINT rightShoulder
        {
          OFFSET -0.4148697850920044 1.1670505408695453 0
          CHANNELS 3 Yrotation Xrotation Zrotation
          JOINT rightUpperArm
          {
            OFFSET -0.9737926108153414 0 0
            CHANNELS 3 Yrotation Xrotation Zrotation
            JOINT rightLowerArm
            {
              OFFSET -2.5269332222665293 0 0
              CHANNELS 3 Yrotation Xrotation Zrotation
              JOINT rightHand
              {
                OFFSET -2.42637827384259 0 0
                CHANNELS 3 Yrotation Xrotation Zrotation
                JOINT rightIndexProximal
                {
                  OFFSET -0.724320348022514 0.08170607082582437 0.20360061616140124
                  CHANNELS 3 Yrotation Xrotation Zrotation
                  JOINT rightIndexIntermediate
                  {
                    OFFSET -0.36548960630744587 -0.010566596513783999 -0.01414783573280308
                    CHANNELS 3 Yrotation Xrotation Zrotation
                    JOINT rightIndexDistal
                    {
                      OFFSET -0.22502819650693362 -0.007863819831430696 -0.007567681939621526
                      CHANNELS 3 Yrotation Xrotation Zrotation
                      End Site
                      {
                        OFFSET -0.22502819650693362 -0.007863819831430696 -0.007567681939621526
                      }
                    }
                  }
                }
                JOINT rightLittleProximal
                {
                  OFFSET -0.6720322998298205 0.08170601055037707 -0.3230036039466837
                  CHANNELS 3 Yrotation Xrotation Zrotation
                  JOINT rightLittleIntermediate
                  {
                    OFFSET -0.34583592281688713 5.476543019078406e-8 1.3869203337180114e-7
                    CHANNELS 3 Yrotation Xrotation Zrotation
                    JOINT rightLittleDistal
                    {
                      OFFSET -0.19925728062053938 0.003098047439490381 0.0038303983709246925
                      CHANNELS 3 Yrotation Xrotation Zrotation
                      End Site
                      {
                        OFFSET -0.19925728062053938 0.003098047439490381 0.0038303983709246925
                      }
                    }
                  }
                }
                JOINT rightMiddleProximal
                {
                  OFFSET -0.7300436596551069 0.0817073395107144 0.022661722987926763
                  CHANNELS 3 Yrotation Xrotation Zrotation
                  JOINT rightMiddleIntermediate
                  {
                    OFFSET -0.40758254347686607 -0.0000012383587111308714 2.408460318820138e-7
                    CHANNELS 3 Yrotation Xrotation Zrotation
                    JOINT rightMiddleDistal
                    {
                      OFFSET -0.2514490105498507 0.0000013869132886590307 9.738618134136345e-8
                      CHANNELS 3 Yrotation Xrotation Zrotation
                      End Site
                      {
                        OFFSET -0.2514490105498507 0.0000013869132886590307 9.738618134136345e-8
                      }
                    }
                  }
                }
                JOINT rightRingProximal
                {
                  OFFSET -0.7217261161191838 0.08170601902187746 -0.15043395722184966
                  CHANNELS 3 Yrotation Xrotation Zrotation
                  JOINT rightRingIntermediate
                  {
                    OFFSET -0.37808807487521556 0.0000013754022405443322 2.2046919317952884e-7
                    CHANNELS 3 Yrotation Xrotation Zrotation
                    JOINT rightRingDistal
                    {
                      OFFSET -0.21812105442344254 -0.002713483731960231 -0.004991354517454624
                      CHANNELS 3 Yrotation Xrotation Zrotation
                      End Site
                      {
                        OFFSET -0.21812105442344254 -0.002713483731960231 -0.004991354517454624
                      }
                    }
                  }
                }
                JOINT rightThumbProximal
                {
                  OFFSET -0.10793587079521427 -0.1652791240518252 -0.07775251827190094
                  CHANNELS 3 Yrotation Xrotation Zrotation
                  JOINT rightThumbIntermediate
                  {
                    OFFSET -0.40355819082296684 -0.017484006740276614 0.3177776014416309
                    CHANNELS 3 Yrotation Xrotation Zrotation
                    JOINT rightThumbDistal
                    {
                      OFFSET -0.2318764658022603 -0.018510186824293617 0.21396001800186287
                      CHANNELS 3 Yrotation Xrotation Zrotation
                      End Site
                      {
                        OFFSET -0.2318764658022603 -0.018510186824293617 0.21396001800186287
                      }
                    }
                  }
                }
              }
            }
          }
        }
      }
    }
  }
  JOINT leftUpperLeg
  {
    OFFSET 0.8486251390888677 -0.4421577294694363 0
    CHANNELS 3 Yrotation Xrotation Zrotation
    JOINT leftLowerLeg
    {
      OFFSET 0 -4.10147812638609 0
      CHANNELS 3 Yrotation Xrotation Zrotation
      JOINT leftFoot
      {
        OFFSET -0.0002543926476658853 -4.77292286812444 0.007402811231737388
        CHANNELS 3 Yrotation Xrotation Zrotation
        JOINT leftToes
        {
          OFFSET 0 -0.7027875951174846 1.2062924140498823
          CHANNELS 3 Yrotation Xrotation Zrotation
          End Site
          {
            OFFSET 0 -0.7027875951174846 1.2062924140498823
          }
        }
      }
    }
  }
  JOINT rightUpperLeg
  {
    OFFSET -0.8486251390888677 -0.4421577294694363 0
    CHANNELS 3 Yrotation Xrotation Zrotation
    JOINT rightLowerLeg
    {
      OFFSET 0 -4.10147812638609 0
      CHANNELS 3 Yrotation Xrotation Zrotation
      JOINT rightFoot
      {
        OFFSET 0.0002543926476658853 -4.77292286812444 0.007402811231737388
        CHANNELS 3 Yrotation Xrotation Zrotation
        JOINT rightToes
        {
          OFFSET 0 -0.7027875951174846 1.2062924140498823
          CHANNELS 3 Yrotation Xrotation Zrotation
          End Site
          {
            OFFSET 0 -0.7027875951174846 1.2062924140498823
          }
        }
      }
    }
  }
}
MOTION
Frames: 4
Frame Time: 0.03333333333333333
0.10717485845088959 -0.34709975328770426 0.10368195176124573 6.823234521649803 -4.507613741816855 -4.571928769466649 -1.5775364310321427 0.05649742631951042 1.489363444907106 -1.0520653944518528 0.879191319341978 5.971361850832159 0 0 0 -1.7494039859019834 5.294264879411723 5.070106273731506 -3.983427782226473 6.328130051767911 12.824733883134517 0 0 0 0 0 0 -7.882168296907369 0.4720534276995568 -12.3560404715956 -40.78552834505054 -4.466974622485149 -61.024146825721196 -147.7030989616535 -74.05057742043502 38.2506480223827 -27.810055892152697 -4.112101484728241 10.178765063100826 -14.71478372988936 -3.0294623955029123 -58.35370732844088 4.729071916236985 3.1419268010195935 -67.18373656702043 4.80242946229645 3.3258040725878546 -69.39266237651118 32.16433650316312 19.806418288828166 -61.42811653218067 4.802033261291339 3.324723082677026 -69.3798142135057 4.8013039389838 3.3228337050151713 -69.35739866241886 6.307095187779236 1.7632775708512476 -60.41897666931209 4.782678484349047 3.27423280275158 -68.77642764094405 4.822853950256713 3.3809602993343093 -70.04894445861689 11.40669315999616 11.043684938735502 -60.75545775948603 4.794427787573731 3.3046916299891205 -69.14088028790381 4.804260174982727 3.3306499408624717 -69.45048542550273 -15.053136965477647 -7.884860616812651 -4.513257078874351 26.753374248034127 9.18269042790123 -16.214593655868182 69.62539791577633 -3.1412143233968126 25.654882197827455 -0.413126348729762 4.7419886926645995 5.265892012205124 9.703343175492465 7.987098171779985 61.77593268021122 19.621405148869265 0.0429841220417287 -0.24852259830736975 0.3201345810481031 -0.8131621190838537 20.403379321574413 5.068478899361069 -1.8974433735472196 19.64831110223163 -2.832045386207942 1.2077471379415066 46.18511246317145 -0.9945967293504214 0.12816052247862927 14.684969479976457 -16.9461423323887 3.921639001664206 29.29553658243427 -3.3148786796264336 1.8233144586624737 57.615682222970655 -0.994595662291464 0.12816532496740424 14.684971131749592 -3.927284542187488 0.41114543155664124 24.822311852263063 -2.832038989305176 1.2077293114564147 46.18513178202317 -0.9945953421737764 0.12815656042539064 14.684964524656905 -9.759571029861418 3.3029371974555444 26.064194629120486 -2.83607635345391 1.2119481071986524 46.27022758650173 -0.9946672619459809 0.12817810492364862 14.68604962456516 -1.498183945760131 0.411666753848072 0.4194373700256628 -42.51630294986695 7.2689972374614555 -9.771468858439203 -32.363918219184775 -2.477338654219457 -18.079063805468547 11.384605399743064 -5.771066526365775 16.913644895972183 -7.768326058480228 16.090282794670436 3.8853822049220224 -4.514807666234788 -10.270144880662878 -15.69804985979557 -0.000004679886614556933 -2.053815369607785 2.261345225308223e-7 -7.057630863189045 -0.9015360464068499 8.277749894338886 -7.553816573501793 20.215235168035033 1.1466147708527625 -3.49077971456937 -15.110387634025187 -5.202850051749174 -0.000004206337776955877 -2.5614964372711393 4.916934447082224e-7
0.10744352638721466 -0.34723422136631754 0.10383258014917374 6.830051005816776 -4.527255632845051 -4.579484241959302 -1.5852766059090404 0.06759985865238571 1.4824527950694046 -1.0622503407109265 0.8938377451658097 5.96093014209805 0 0 0 -1.7387914994319085 5.296655831776305 5.071021189857317 -3.9145417851789026 6.376667556215429 12.811813439412463 0 0 0 0 0 0 -7.889554040298371 0.47187551658009186 -12.355778674182531 -40.71186121984043 -4.478421019834606 -61.045348286337244 -147.21753679778527 -73.89521762458753 37.76274973503378 -27.78451569152827 -4.100247572228985 10.230794140526829 -14.714785383744163 -3.0294628229871483 -58.353713151140816 4.729076603051214 3.1419285111374853 -67.1837273591981 4.802421366285891 3.3258025759633454 -69.39268559734029 32.164340367834065 19.806434623040573 -61.42811306017349 4.80202729581297 3.324721158447624 -69.37982302635237 4.801313739403921 3.322844608960971 -69.3573726359531 6.307081652803049 1.763284831365202 -60.418991928151016 4.782679336541056 3.2742022304380543 -68.7764196692676 4.822841592861958 3.3809504638185217 -70.04895205740328 11.406682074885369 11.043693637562038 -60.755451505544805 4.794438440116367 3.3047040303275956 -69.14087145865601 4.804245826955208 3.330639250634878 -69.45049303268594 -15.05315117842846 -7.884850273743016 -4.5132613751233315 26.753344850682456 9.182686968472426 -16.214638076626716 69.6254055190559 -3.141221805157502 25.65487757323619 -0.4100617498949709 4.74471730695231 5.289260798157885 9.699908632905863 7.994407433910168 61.799065143035016 19.678239375093465 0.04322987551927077 -0.24922636815520294 0.337672122512797 -0.8255284805302002 20.407019769927203 5.068483153869995 -1.8974365396109774 19.648340293156366 -2.832047092048668 1.2077342217457099 46.185114828071534 -0.9945976897034826 0.12816753944833967 14.684971131749592 -16.946139057913125 3.9216526941032264 29.295541242730856 -3.3148810247628893 1.823317021280878 57.615692709271485 -0.994593208055859 0.12816771287154544 14.68495374827504 -3.9272807091291124 0.4111526621383715 24.82232413481236 -2.8320349379333876 1.2077218392770699 46.185109998358776 -0.9945964092327343 0.12815545318492338 14.684971131749592 -9.759565972955336 3.3029538737433617 26.06420074147226 -2.8360776328320343 1.2119452250678493 46.270220288608215 -0.9946712100639489 0.12818079965346293 14.68605709743044 -1.498179038113204 0.4116779599164332 0.4194701869185869 -42.51629808563747 7.26898949124275 -9.771476492279637 -32.36391533187467 -2.4773531819492036 -18.079047061014172 11.380419696415384 -5.76066402635082 16.923176918548275 -7.777812443724361 16.11072658392642 3.8829403184391937 -4.513882650950266 -10.287583903595417 -15.694311450629083 0.0000020478251797175234 -2.056613491687441 0.0000025584043997636903 -7.062240041373285 -0.8800126930185861 8.284482534996222 -7.551723458155185 20.218554217040992 1.1421788208579626 -3.489526477229785 -15.11177783630088 -5.211533401156768 -0.000003329323466765686 -2.575917076835399 -8.027321297364264e-7
0.10802562534809113 -0.3472914418253019 0.10422388464212418 6.83696168742029 -4.551322162003146 -4.582989621607241 -1.5935099808934627 0.08640456711304734 1.4715953194734381 -1.0725610311323044 0.9187926689615128 5.947448708935388 0 0 0 -1.740637619247743 5.288591281189886 5.075645722324012 -3.8989014638480786 6.409047201353582 12.789820020748282 0 0 0 0 0 0 -7.889882822980535 0.4719072673644258 -12.355009652790157 -40.63417954868782 -4.515628189172918 -61.056749454076154 -146.6082246466501 -73.69480878952075 37.14511207819469 -27.775975249547002 -4.0867260151188605 10.285401068662978 -14.714791213982478 -3.029469021508595 -58.35370262277252 4.729079585569326 3.1418994391337125 -67.18372868548818 4.802443949893812 3.325808348657893 -69.39268559734029 32.164331498091684 19.806414659003416 -61.42812797362839 4.802026443601765 3.324728855365254 -69.3798142135057 4.801302234562881 3.322832849803741 -69.35738184497832 6.307087171355578 1.7632727660993817 -60.41897666931209 4.782669962428834 3.2742201889997324 -68.77644446658888 4.8228607681294875 3.3809635065677397 -70.04893525196393 11.406677123228695 11.043688418266086 -60.755476521309056 4.794423100454866 3.3046926989838106 -69.14089589056059 4.80425591391502 3.3306604172856265 -69.45049303268594 -15.053135300785765 -7.884851997587937 -4.513260086248644 26.753346395235496 9.182683509043656 -16.214609570061878 69.62539791577633 -3.1412100481050143 25.654871467857053 -0.4126341950246437 4.748684311580475 5.319196943548538 9.710689294214474 8.000986571524557 61.81359911760261 19.709789012928702 0.043342960539032006 -0.2496162871847357 0.352147279865091 -0.8236055297876165 20.412617929463437 5.068481026615539 -1.8974230852990794 19.648343511168385 -2.8320462391283057 1.2077388117987546 46.18509314431945 -0.9945876593492609 0.12815890830879126 14.6849678282033 -16.94613314845713 3.9216629634326394 29.29553975007125 -3.3148782532379855 1.8233089063226104 57.615677507512835 -0.9945923544086913 0.12816819312042302 14.6849678282033 -3.927275364477928 0.41113169078326045 24.82233176786027 -2.8320509301902828 1.2077541831392398 46.18511729288441 -0.9945859520549191 0.12815632030095195 14.68495374827504 -9.759565972955336 3.3029517357577287 26.0642114631616 -2.836083176803874 1.2119503488559458 46.27020097034179 -0.9946617132396316 0.12817799820167577 14.68605214213546 -1.4981739170903 0.411664592677747 0.4194810458416321 -42.51628581956813 7.268992073315636 -9.771486406831272 -32.3639305407011 -2.4773531819492036 -18.07905624562268 11.376215270492722 -5.736953302101628 16.9274108449302 -7.782966392331393 16.122240583155794 3.88320670980887 -4.513011803999551 -10.305619181712746 -15.688268245267272 -0.00000744566627750777 -2.0583330331537937 0.000007067315374634024 -7.082373054567691 -0.8492875901622664 8.276371590288443 -7.527682583397484 20.2224811219544 1.154924780669401 -3.48872111239769 -15.11915702684843 -5.2191536420205855 -0.000004906191434360618 -2.5855587031234024 0.0000022020163736788976
0.10845588892698288 -0.34729811754551676 0.10453661531209946 6.838477073353202 -4.564997190639063 -4.583206683971017 -1.5967241056382853 0.09818812616422637 1.4650203087120999 -1.0763630356429414 0.9344022260835144 5.940219609323443 0 0 0 -1.7450669903095202 5.28203545476066 5.078791836900395 -3.9058607254506037 6.416215511593963 12.77418139289688 0 0 0 0 0 0 -7.886906294310186 0.47201276534971576 -12.354247200303696 -40.596867959138805 -4.539121359172355 -61.05851380373475 -146.29506616698856 -73.58937416953061 36.825829610997125 -27.776744119127155 -4.0806847423890735 10.308809719331736 -14.714797829401498 -3.0294604718238505 -58.353710239790765 4.729083846309442 3.141892384897625 -67.18371972768215 4.802438410518423 3.325809631478908 -69.39266237651118 32.16433729509749 19.806434623040573 -61.42813087717704 4.802028574129772 3.3247237240868275 -69.37983103059582 4.801316722140424 3.3228371258608993 -69.35736623351556 6.307094763275187 1.763282055286334 -60.41899361482348 4.782680188733064 3.2742238234705874 -68.77642764094405 4.822832644403408 3.3809654309078034 -70.04895205740328 11.406700669756011 11.043701466506137 -60.75544828764177 4.794432474692532 3.3046993267509146 -69.14089589056059 4.804250940236295 3.3306512236897907 -69.45047501593535 -15.053156172503595 -7.884846826053193 -4.513274263869973 26.753341748865683 9.18267745504339 -16.21461621370454 69.62541312233527 -3.1412192399824024 25.6548653624781 -0.4162947060340281 4.751302435759527 5.33774117492094 9.720265126064655 8.004323168589739 61.81554994409832 19.717561735964015 0.04340067698807629 -0.24970174380344948 0.3580437906238512 -0.8203370012868304 20.41542668155596 5.06848485567355 -1.8974267158276767 19.648341902162393 -2.8320400554556415 1.2077268563117705 46.185105168646 -0.9945969427622129 0.1281631505072088 14.684961221110413 -16.9461315112193 3.9216612518777287 29.29553676475191 -3.3148720706054524 1.8233086927710778 57.61569165388576 -0.9945897934671855 0.12815788110980347 14.684962872883673 -3.9272828386059926 0.41113390531566774 24.82232413481236 -2.832046878818577 1.207750767285791 46.18511246317145 -0.9945955555855681 0.1281573474999397 14.68495540004831 -9.759566815773027 3.3029504529663507 26.064186980322834 -2.836081257736705 1.2119498151280186 46.27022758650173 -0.9946675820636544 0.12818418807610119 14.686044669270146 -1.498178931425227 0.41167718616409343 0.4194857949529298 -42.51628349294925 7.268977441569472 -9.77147309946171 -32.36391350208174 -2.4773313903546437 -18.0790519353029 11.374528784183825 -5.719425745383206 16.92744132730092 -7.781328836324059 16.12415135318412 3.8856380912116175 -4.512454215419153 -10.314579933119935 -15.686375619730185 -0.000004615572573811996 -2.0589351187236145 -0.0000016972816716201085 -7.096569264842688 -0.8309100578938003 8.267690917392658 -7.5059947821217445 20.224935942808564 1.167026815073244 -3.488687877738331 -15.125358433955114 -5.2223146841818515 -0.000009061223774238297 -2.587158597134405 9.846189085556225e-7
